<svg width="21" height="27" viewBox="0 0 21 27" fill="none" xmlns="http://www.w3.org/2000/svg">
<path d="M20.9474 19.2795C20.8778 19.4789 20.8104 19.693 20.7329 19.9035C20.091 21.6687 19.1166 23.2359 17.9342 24.6722C17.706 24.9518 17.4401 25.2049 17.1656 25.4397C16.6229 25.9062 15.9984 26.188 15.2761 26.2137C14.7335 26.2314 14.2126 26.1313 13.7105 25.9238C13.3468 25.773 12.9889 25.6045 12.6202 25.4684C11.4233 25.0269 10.233 25.085 9.05569 25.5574C8.63115 25.7281 8.2124 25.9165 7.77988 26.0644C7.27854 26.2351 6.75836 26.3042 6.22876 26.2027C5.76654 26.1151 5.36228 25.8966 4.987 25.6148C4.52115 25.2645 4.12993 24.8378 3.76407 24.386C2.03183 22.2404 0.869034 19.8144 0.307559 17.0971C0.0655821 15.9287 -0.0503352 14.7506 0.0206641 13.5564C0.10398 12.1246 0.431446 10.7611 1.18491 9.53233C2.13036 7.98788 3.46413 6.97615 5.21883 6.55895C6.2744 6.30657 7.301 6.40958 8.3073 6.80324C8.8369 7.00926 9.36795 7.21308 9.89972 7.41542C10.3895 7.60232 10.877 7.60232 11.3675 7.41175C11.9102 7.20131 12.4535 6.9916 12.9983 6.78631C13.5569 6.57955 14.1249 6.41032 14.7175 6.36249C15.6043 6.28965 16.4693 6.40664 17.3112 6.69286C18.5044 7.09829 19.4752 7.8157 20.2084 8.86054C20.2279 8.88924 20.2497 8.92088 20.2642 8.94369C18.4153 10.2527 17.3626 11.9818 17.5155 14.3231C17.6698 16.6659 18.9116 18.2509 20.9474 19.2795ZM10.5764 6.07258C11.1219 6.0873 11.6464 5.98061 12.1514 5.77679C14.4545 4.84821 15.6586 2.3737 15.6224 0.481215C15.6195 0.328904 15.6094 0.176593 15.6028 0C15.3659 0.0360544 15.15 0.0529778 14.9428 0.105956C13.2613 0.524628 11.9674 1.47749 11.1168 3.02047C10.6191 3.92404 10.3424 4.88353 10.4271 5.93204C10.4329 6.04315 10.4728 6.07111 10.5764 6.07258Z" fill="black" fill-opacity="0.4"/>
</svg>
