<svg width="24" height="25" viewBox="0 0 24 25" fill="none" xmlns="http://www.w3.org/2000/svg">
<path d="M5.264 0.891823C4.30103 0.362039 3.17039 0.374288 2.21358 0.899478L13.4277 11.1966L17.1949 7.44675L5.264 0.891823Z" fill="black" fill-opacity="0.4"/>
<path d="M1.09222 1.95312C0.818404 2.39869 0.661499 2.90857 0.661499 3.44908V22.0466C0.661499 22.5703 0.80456 23.0695 1.06299 23.5058L12.3402 12.2808L1.09222 1.95312Z" fill="black" fill-opacity="0.4"/>
<path d="M22.1898 10.1905L18.5963 8.2168L14.5583 12.2346L19.507 16.7776L22.1913 15.303C23.1573 14.7702 23.7357 13.8147 23.7357 12.746C23.7342 11.6772 23.1573 10.7218 22.1898 10.1905Z" fill="black" fill-opacity="0.4"/>
<path d="M13.4705 13.3186L2.16252 24.5742C2.65323 24.8529 3.19163 24.9999 3.73311 24.9999C4.25613 24.9999 4.78222 24.8682 5.26371 24.6033L18.0884 17.5584L13.4705 13.3186Z" fill="black" fill-opacity="0.4"/>
</svg>
