<svg width="40" height="40" viewBox="0 0 40 40" fill="none" xmlns="http://www.w3.org/2000/svg">
<path d="M0 15C0 13.4221 1.27919 12.1429 2.85714 12.1429H35C36.578 12.1429 37.8571 13.4221 37.8571 15V37.1429C37.8571 38.7208 36.578 40 35 40H2.85714C1.27919 40 0 38.7208 0 37.1429V15Z" fill="white"/>
<path fill-rule="evenodd" clip-rule="evenodd" d="M35 14.2857H2.85714C2.46265 14.2857 2.14286 14.6055 2.14286 15V37.1429C2.14286 37.5374 2.46265 37.8572 2.85714 37.8572H35C35.3945 37.8572 35.7143 37.5374 35.7143 37.1429V15C35.7143 14.6055 35.3945 14.2857 35 14.2857ZM2.85714 12.1429C1.27919 12.1429 0 13.4221 0 15V37.1429C0 38.7208 1.27919 40 2.85714 40H35C36.578 40 37.8571 38.7208 37.8571 37.1429V15C37.8571 13.4221 36.578 12.1429 35 12.1429H2.85714Z" fill="black"/>
<path d="M4.28555 16.9407V18.4639H10.4911C11.1037 18.4639 11.6044 18.9584 11.6044 19.5783C11.6044 20.1915 11.1104 20.6926 10.4911 20.6926H4.28555V23.3237H7.73749C8.35013 23.3237 8.85077 23.8182 8.85077 24.4381C8.85077 25.058 8.35675 25.5525 7.73749 25.5525H4.28555V35.5558H33.1788V16.9407H4.28555Z" fill="#F7D145"/>
<path d="M26.4285 26.4286C26.4285 23.6672 28.6671 21.4286 31.4285 21.4286H37.8571C39.0406 21.4286 40 22.388 40 23.5714V29.2857C40 30.4692 39.0406 31.4286 37.8571 31.4286H31.4285C28.6671 31.4286 26.4285 29.19 26.4285 26.4286Z" fill="white"/>
<path fill-rule="evenodd" clip-rule="evenodd" d="M37.8571 23.5714H31.4285C29.8506 23.5714 28.5714 24.8506 28.5714 26.4286C28.5714 28.0065 29.8506 29.2857 31.4285 29.2857H37.8571V23.5714ZM31.4285 21.4286C28.6671 21.4286 26.4285 23.6672 26.4285 26.4286C26.4285 29.19 28.6671 31.4286 31.4285 31.4286H37.8571C39.0406 31.4286 40 30.4692 40 29.2857V23.5714C40 22.388 39.0406 21.4286 37.8571 21.4286H31.4285Z" fill="black"/>
<path d="M14.8976 32.6276H6.82773C6.21509 32.6276 5.71445 33.1221 5.71445 33.7419C5.71445 34.3552 6.20847 34.8563 6.82773 34.8563H14.8976C15.5102 34.8563 16.0109 34.3618 16.0109 33.7419C16.0109 33.1221 15.5168 32.6276 14.8976 32.6276Z" fill="black"/>
<path d="M33.5716 26.4286C33.5716 27.2175 32.932 27.8571 32.143 27.8571C31.354 27.8571 30.7144 27.2175 30.7144 26.4286C30.7144 25.6396 31.354 25 32.143 25C32.932 25 33.5716 25.6396 33.5716 26.4286Z" fill="black"/>
<path d="M29.2858 10.3571C29.2858 16.0772 24.6487 20.7143 18.9286 20.7143C13.2085 20.7143 8.57147 16.0772 8.57147 10.3571C8.57147 4.63705 13.2085 0 18.9286 0C24.6487 0 29.2858 4.63705 29.2858 10.3571Z" fill="white"/>
<path fill-rule="evenodd" clip-rule="evenodd" d="M18.9286 18.5714C23.4652 18.5714 27.1429 14.8938 27.1429 10.3571C27.1429 5.82052 23.4652 2.14286 18.9286 2.14286C14.392 2.14286 10.7143 5.82052 10.7143 10.3571C10.7143 14.8938 14.392 18.5714 18.9286 18.5714ZM18.9286 20.7143C24.6487 20.7143 29.2858 16.0772 29.2858 10.3571C29.2858 4.63705 24.6487 0 18.9286 0C13.2085 0 8.57147 4.63705 8.57147 10.3571C8.57147 16.0772 13.2085 20.7143 18.9286 20.7143Z" fill="black"/>
<path fill-rule="evenodd" clip-rule="evenodd" d="M18.9289 5.71429C18.4161 5.71429 18.0003 6.13003 18.0003 6.64287V9.42863H15.2143C14.7014 9.42863 14.2857 9.84436 14.2857 10.3572C14.2857 10.87 14.7014 11.2858 15.2143 11.2858H18.0003V14.0714C18.0003 14.5843 18.4161 15 18.9289 15C19.4417 15 19.8575 14.5843 19.8575 14.0714V11.2858H22.6428C23.1557 11.2858 23.5714 10.87 23.5714 10.3572C23.5714 9.84436 23.1557 9.42863 22.6428 9.42863H19.8575V6.64287C19.8575 6.13003 19.4417 5.71429 18.9289 5.71429Z" fill="black"/>
</svg>
